#!OML:ASF E:/inclinewalkrobotboard/Project1/Captureday1/Session1/subject1.ASF
:FULLY-SPECIFIED
:DEGREES
238
root 0 0 0 0.46138740863598393 -3.1553533651230894 1.2728808198763917
lowerback 11.505113797537982 0.6262678371778838 -0.5486457754679758
upperback -2.7796256509180686 0.7884603223329114 0.01621112205846642
thorax -9.451817306802813 0.35194160204154984 0.20860087694423335
lowerneck -9.796682884828243 0.2642905313220374 2.3763429804250586
upperneck 18.55198810502992 1.1350809389463348 -5.507061485914961
head 7.446624455935066 0.2746893709665068 -2.0905418137915057
rclavicle 2.1287538837709683E-16 -7.379736399377893E-16
rhumerus 2.5817256102695154 3.4382285443005554 -59.56532126947892
rradius 56.19618668328138
rwrist 17.53985625866911
rhand -28.40037217666701 -27.544810931342607
rfingers 7.125019999999986
rthumb -1.7679216982752015 -57.783771036522374
lclavicle -8.353069905080344E-16 -1.7436160873417234E-16
lhumerus 3.081222447934188 -9.601945300306253 59.031206222401636
lradius 55.779841581719154
lwrist -11.275594836125405
lhand -38.86377181162701 -36.0029221492663
lfingers 7.125019999999983
lthumb -11.804739382603664 -6.311112117953918
rfemur -25.46360220587244 1.7493912496231316 19.938401113015395
rtibia 47.88791799432391
rfoot -7.271623542732069 -9.888713019921726
rtoes -1.4643314957332023
lfemur -14.869128372714897 -0.3031197830795773 -17.179815568520045
ltibia 42.587906321986225
lfoot -6.0227616242716735 -4.781703884906858
ltoes -6.2482538828217535
239
root 0 0 0 0.46139826885932367 -3.1552862948040636 1.2730062783923695
lowerback 11.505124387644505 0.6262233600757494 -0.5487649699663842
upperback -2.779643137672826 0.7883850630377043 0.01620070313881139
thorax -9.451844772728432 0.35190793665496745 0.2086722906820001
lowerneck -9.796634482982412 0.2643163869122711 2.3763631219750674
upperneck 18.55199537355982 1.1351225110900613 -5.507103862841103
head 7.446620099590698 0.27470805647823826 -2.09055389742334
rclavicle 2.1287517878557506E-16 -7.379809013372941E-16
rhumerus 2.5817345543028303 3.4382309291885633 -59.56531204296524
rradius 56.196194445243634
rwrist 17.539865172804056
rhand -28.40037495302849 -27.54482818654839
rfingers 7.125019999999986
rthumb -1.7679258488725385 -57.783790434948735
lclavicle -8.353134070910028E-16 -1.7436200413959197E-16
lhumerus 3.0813281744601824 -9.601973273571828 59.03113154236324
lradius 55.77992278423077
lwrist -11.275646225668275
lhand -38.863806828184664 -36.003102449715875
lfingers 7.125019999999983
lthumb -11.804773255052561 -6.311300828743555
rfemur -25.465635047052313 1.7488380107707393 19.9373891258964
rtibia 47.89032488392999
rfoot -7.270699141982309 -9.888971276605497
rtoes -1.4644383012631317
lfemur -14.871518908210529 -0.3020410023647293 -17.17823726686052
ltibia 42.595645873557935
lfoot -6.019968373278474 -4.783986758797389
ltoes -6.249308054040969
240
root 0 0 0 0.46141212939769094 -3.155251607793086 1.2730863138328827
lowerback 11.505134461912322 0.6261991027694048 -0.5488341870475936
upperback -2.779662307951272 0.7883435129939627 0.016190424750641697
thorax -9.451873133422104 0.35188932036191456 0.2087097581295162
lowerneck -9.796587181105537 0.2643394759085216 2.3763867271396957
upperneck 18.552001488882944 1.1351590989078022 -5.50714616330736
head 7.446614741799628 0.2747242079512793 -2.090567096489734
rclavicle 2.128771088415583E-16 -7.379838754764131E-16
rhumerus 2.5817778900262063 3.438259929511087 -59.56528617224119
rradius 56.196233583512836
rwrist 17.539884610054788
rhand -28.400388768342317 -27.54489470963556
rfingers 7.125019999999986
rthumb -1.7679391604455308 -57.78385932797405
lclavicle -8.353175089126783E-16 -1.7435474137805396E-16
lhumerus 3.0815049985472136 -9.602023061964875 59.03100860992956
lradius 55.78006060802417
lwrist -11.275728832540226
lhand -38.86386579330487 -36.00339561468898
lfingers 7.125019999999983
lthumb -11.80482966595396 -6.311606834513896
rfemur -25.467597274448096 1.7483318168872914 19.93642064852491
rtibia 47.89236258037617
rfoot -7.269984653623737 -9.889281483881689
rtoes -1.4646789873847936
lfemur -14.873755917806239 -0.3012005031114322 -17.17687906515473
ltibia 42.60163786041098
lfoot -6.017860582832448 -4.78563256851958
ltoes -6.25007856281371
241
root 0 0 0 0.4614254009629586 -3.1552431689086946 1.2731230833281477
lowerback 11.505141988125574 0.6261918538332633 -0.548859730892867
upperback -2.7796788046033414 0.788330572638721 0.016182241826217858
thorax -9.451896376664845 0.3518834788512441 0.20871926934596408
lowerneck -9.796549884014652 0.26435651914746217 2.376407796884511
upperneck 18.552004719533937 1.1351856113950203 -5.507179949601287
head 7.446609447340602 0.2747357260854226 -2.0905782817177836
rclavicle 2.1288024904310667E-16 -7.379830065665005E-16
rhumerus 2.5818360097707895 3.4383014318518015 -59.565254294548815
rradius 56.19628628634658
rwrist 17.539907130151597
rhand -28.400407330775543 -27.544981339837438
rfingers 7.125019999999986
rthumb -1.7679559775781888 -57.783947991269315
lclavicle -8.353190280157291E-16 -1.7434310562479758E-16
lhumerus 3.0816991146896804 -9.602079119614421 59.030874556485315
lradius 55.78021288568118
lwrist -11.275817953995624
lhand -38.86393071573076 -36.00371355319605
lfingers 7.125019999999983
lthumb -11.804891497433834 -6.311938276801882
rfemur -25.469107633121617 1.7479654488218723 19.93568222616886
rtibia 47.89369501232927
rfoot -7.269579721158459 -9.889569901799907
rtoes -1.4649766342521575
lfemur -14.875361261784636 -0.30072473874540906 -17.175995597299806
ltibia 42.604990111020214
lfoot -6.016737441374108 -4.786440510066052
ltoes -6.250469134562737
242
root 0 0 0 0.4614354161877632 -3.155252808133274 1.2731244268758408
lowerback 11.505145981086246 0.6261968199553901 -0.548852404926547
upperback -2.779689818642801 0.7883383826544222 0.016177275987552475
thorax -9.45191092146965 0.35188690987436044 0.2087092364687818
lowerneck -9.796527585628166 0.26436593491366667 2.376422343253039
upperneck 18.55200468906147 1.1351997504602926 -5.507200404495014
head 7.44660515992514 0.27474172310383405 -2.0905855190770044
rclavicle 2.1288360712388765E-16 -7.379794919578607E-16
rhumerus 2.581891349187586 3.438342381908143 -59.56522549228795
rradius 56.196336573970434
rwrist 17.539926626662016
rhand -28.40042501107625 -27.545062384225428
rfingers 7.125019999999986
rthumb -1.7679714094592622 -57.78403037498065
lclavicle -8.353183262399453E-16 -1.743306589631516E-16
lhumerus 3.0818648211564685 -9.60212794313702 59.030760737242574
lradius 55.78034357446771
lwrist -11.275892944712343
lhand -38.86398627117317 -36.00398226899557
lfingers 7.125019999999983
lthumb -11.804944222599445 -6.3122180944839315
rfemur -25.46996447832332 1.7477808003501418 19.935270354193847
rtibia 47.894217005500586
rfoot -7.2694926432359495 -9.889782333399973
rtoes -1.4652561161864008
lfemur -14.876127539113964 -0.3006261355327 -17.175666944096573
ltibia 42.60563119539665
lfoot -6.016599131050897 -4.786447703661593
ltoes -6.250492140343783
